<svg xmlns="http://www.w3.org/2000/svg" x="0px" y="0px"
width="24" height="24"
viewBox="0 0 192 192"
style=" fill:#000000;"><g fill="none" fill-rule="nonzero" stroke="none" stroke-width="1" stroke-linecap="butt" stroke-linejoin="miter" stroke-miterlimit="10" stroke-dasharray="" stroke-dashoffset="0" font-family="none" font-weight="none" font-size="none" text-anchor="none" style="mix-blend-mode: normal"><path d="M0,192v-192h192v192z" fill="none"></path><g fill="#ffffff"><path d="M96,16c-44.184,0 -80,35.816 -80,80c0,40.104 29.544,73.224 68.04,79.008v-57.808h-19.792v-21.032h19.792v-13.992c0,-23.168 11.288,-33.336 30.544,-33.336c9.224,0 14.096,0.68 16.408,0.992v18.352h-13.136c-8.176,0 -11.032,7.752 -11.032,16.488v11.496h23.96l-3.248,21.032h-20.704v57.976c39.048,-5.288 69.168,-38.68 69.168,-79.176c0,-44.184 -35.816,-80 -80,-80z"></path></g></g></svg>