<svg xmlns="http://www.w3.org/2000/svg" width="24" height="24" x="0px" y="0px" style="fill:#000000" viewBox="0 0 192 192">
    <g fill="none" fill-rule="nonzero" stroke="none" stroke-dasharray="" stroke-dashoffset="0" stroke-linecap="butt" stroke-linejoin="miter" stroke-miterlimit="10" stroke-width="1" font-family="none" font-size="none" font-weight="none" style="mix-blend-mode:normal" text-anchor="none">
        <path fill="none" d="M0,192v-192h192v192z"/>
        <g fill="#ffffff">
            <path d="M144,16c-13.25483,0 -24,10.74517 -24,24c0.00489,1.5052 0.15137,3.00661 0.4375,4.48438l-56.92188,33.20312c-4.33554,-3.67275 -9.83355,-5.68813 -15.51562,-5.6875c-13.25483,0 -24,10.74517 -24,24c0,13.25483 10.74517,24 24,24c5.6733,-0.01113 11.15923,-2.03168 15.48438,-5.70313l56.95313,33.21875c-0.28614,1.47777 -0.43262,2.97917 -0.4375,4.48438c0,13.25483 10.74517,24 24,24c13.25483,0 24,-10.74517 24,-24c0,-13.25483 -10.74517,-24 -24,-24c-5.67867,0.00744 -11.17075,2.02821 -15.5,5.70313l-56.9375,-33.21875c0.28613,-1.47777 0.43261,-2.97917 0.4375,-4.48438c-0.00489,-1.5052 -0.15137,-3.00661 -0.4375,-4.48438l56.92188,-33.20312c4.33554,3.67275 9.83355,5.68813 15.51562,5.6875c13.25483,0 24,-10.74517 24,-24c0,-13.25483 -10.74517,-24 -24,-24z"/>
        </g>
    </g>
</svg>
