<svg xmlns="http://www.w3.org/2000/svg" x="0px" y="0px"
width="24" height="24"
viewBox="0 0 192 192"
style=" fill:#000000;"><g fill="none" fill-rule="nonzero" stroke="none" stroke-width="1" stroke-linecap="butt" stroke-linejoin="miter" stroke-miterlimit="10" stroke-dasharray="" stroke-dashoffset="0" font-family="none" font-weight="none" font-size="none" text-anchor="none" style="mix-blend-mode: normal"><path d="M0,192v-192h192v192z" fill="none"></path><g fill="#ffffff"><path d="M176,31.992c-6.24,3.704 -18.76,8.752 -26.12,10.208c-0.216,0.056 -0.392,0.128 -0.6,0.184c-6.504,-6.416 -15.416,-10.392 -25.28,-10.392c-19.88,0 -36,16.12 -36,36c0,1.048 -0.088,2.976 0,4c-26.824,0 -47.24,-14.048 -61.88,-32c-1.592,4 -2.288,10.32 -2.288,16.256c0,11.208 8.76,22.216 22.4,29.04c-2.512,0.648 -5.28,1.112 -8.16,1.112c-4.648,0 -9.568,-1.224 -14.072,-4.936c0,0.136 0,0.264 0,0.408c0,15.664 16.624,26.328 31.408,29.296c-3,1.768 -9.048,1.944 -12,1.944c-2.08,0 -9.44,-0.952 -11.408,-1.32c4.112,12.84 18.944,20.056 33.08,20.312c-11.056,8.672 -18.728,11.888 -41.368,11.888h-7.712c14.304,9.168 32.52,16.008 50.776,16.008c59.44,0 93.224,-45.304 93.224,-88.008c0,-0.688 -0.016,-2.128 -0.04,-3.576c0,-0.144 0.04,-0.28 0.04,-0.424c0,-0.216 -0.064,-0.424 -0.064,-0.64c-0.024,-1.088 -0.048,-2.104 -0.072,-2.632c6.32,-4.56 11.8,-10.248 16.136,-16.728c-5.8,2.576 -12.024,4.304 -18.56,5.088c6.672,-4 16.152,-13.536 18.56,-21.088z"></path></g></g></svg>